<mxfile host="app.diagrams.net" agent="Mozilla/5.0 (Macintosh; Intel Mac OS X 10_15_7) AppleWebKit/537.36 (KHTML, like Gecko) Chrome/128.0.0.0 Safari/537.36" version="24.8.4">
  <diagram name="Page-1" id="fZuBEkGUR0xDHig7RN8K">
    <mxGraphModel dx="734" dy="471" grid="1" gridSize="10" guides="1" tooltips="1" connect="1" arrows="1" fold="1" page="1" pageScale="1" pageWidth="1169" pageHeight="827" math="0" shadow="0">
      <root>
        <mxCell id="0" />
        <mxCell id="1" parent="0" />
        <mxCell id="jYgNeBz4wBcF9DyLLT3X-1" value="Bank IT" style="sketch=0;outlineConnect=0;gradientColor=none;html=1;whiteSpace=wrap;fontSize=12;fontStyle=0;shape=mxgraph.aws4.group;grIcon=mxgraph.aws4.group_aws_cloud;strokeColor=#AAB7B8;fillColor=none;verticalAlign=top;align=left;spacingLeft=30;fontColor=#AAB7B8;dashed=0;" parent="1" vertex="1">
          <mxGeometry x="60" y="71.5" width="250" height="228.5" as="geometry" />
        </mxCell>
        <mxCell id="jYgNeBz4wBcF9DyLLT3X-49" value="AWS Cloud" style="sketch=0;outlineConnect=0;gradientColor=none;html=1;whiteSpace=wrap;fontSize=12;fontStyle=0;shape=mxgraph.aws4.group;grIcon=mxgraph.aws4.group_aws_cloud;strokeColor=#858B94;fillColor=none;verticalAlign=top;align=left;spacingLeft=30;fontColor=#858B94;dashed=0;" parent="1" vertex="1">
          <mxGeometry x="340" y="70" width="710" height="380" as="geometry" />
        </mxCell>
        <mxCell id="jYgNeBz4wBcF9DyLLT3X-2" value="Hadoop Cluster" style="outlineConnect=0;dashed=0;verticalLabelPosition=bottom;verticalAlign=top;align=center;html=1;shape=mxgraph.aws3.hdfs_cluster;fillColor=#F58534;gradientColor=none;" parent="1" vertex="1">
          <mxGeometry x="105.5" y="123" width="61.5" height="63" as="geometry" />
        </mxCell>
        <mxCell id="jYgNeBz4wBcF9DyLLT3X-4" value="" style="edgeStyle=orthogonalEdgeStyle;rounded=0;orthogonalLoop=1;jettySize=auto;html=1;" parent="1" source="jYgNeBz4wBcF9DyLLT3X-1" target="jYgNeBz4wBcF9DyLLT3X-2" edge="1">
          <mxGeometry relative="1" as="geometry">
            <mxPoint x="119" y="161.5" as="sourcePoint" />
            <Array as="points">
              <mxPoint x="100" y="160" />
              <mxPoint x="100" y="160" />
            </Array>
          </mxGeometry>
        </mxCell>
        <mxCell id="jYgNeBz4wBcF9DyLLT3X-16" value="" style="edgeStyle=orthogonalEdgeStyle;rounded=0;orthogonalLoop=1;jettySize=auto;html=1;exitX=0.908;exitY=0.564;exitDx=0;exitDy=0;exitPerimeter=0;" parent="1" edge="1" source="jYgNeBz4wBcF9DyLLT3X-14">
          <mxGeometry relative="1" as="geometry">
            <mxPoint x="375.9999999999999" y="158.9354838709677" as="sourcePoint" />
            <mxPoint x="454" y="159" as="targetPoint" />
          </mxGeometry>
        </mxCell>
        <mxCell id="jYgNeBz4wBcF9DyLLT3X-20" value="" style="edgeStyle=orthogonalEdgeStyle;rounded=0;orthogonalLoop=1;jettySize=auto;html=1;" parent="1" source="jYgNeBz4wBcF9DyLLT3X-18" edge="1">
          <mxGeometry relative="1" as="geometry">
            <mxPoint x="489" y="287" as="targetPoint" />
          </mxGeometry>
        </mxCell>
        <mxCell id="jYgNeBz4wBcF9DyLLT3X-43" value="" style="edgeStyle=orthogonalEdgeStyle;rounded=0;orthogonalLoop=1;jettySize=auto;html=1;" parent="1" source="jYgNeBz4wBcF9DyLLT3X-18" target="jYgNeBz4wBcF9DyLLT3X-28" edge="1">
          <mxGeometry relative="1" as="geometry" />
        </mxCell>
        <mxCell id="jYgNeBz4wBcF9DyLLT3X-18" value="Ingestion Service&lt;div&gt;(Grimlock)&lt;/div&gt;" style="sketch=0;points=[[0,0,0],[0.25,0,0],[0.5,0,0],[0.75,0,0],[1,0,0],[0,1,0],[0.25,1,0],[0.5,1,0],[0.75,1,0],[1,1,0],[0,0.25,0],[0,0.5,0],[0,0.75,0],[1,0.25,0],[1,0.5,0],[1,0.75,0]];outlineConnect=0;fontColor=#232F3E;fillColor=#ED7100;strokeColor=#ffffff;dashed=0;verticalLabelPosition=bottom;verticalAlign=top;align=center;html=1;fontSize=12;fontStyle=0;aspect=fixed;shape=mxgraph.aws4.resourceIcon;resIcon=mxgraph.aws4.ec2;" parent="1" vertex="1">
          <mxGeometry x="450" y="120" width="78" height="78" as="geometry" />
        </mxCell>
        <mxCell id="rdtsFOhuQ50RO5R9y7oS-7" value="" style="edgeStyle=orthogonalEdgeStyle;rounded=0;orthogonalLoop=1;jettySize=auto;html=1;entryX=0;entryY=0.5;entryDx=0;entryDy=0;" edge="1" parent="1" source="jYgNeBz4wBcF9DyLLT3X-21" target="rdtsFOhuQ50RO5R9y7oS-2">
          <mxGeometry relative="1" as="geometry">
            <mxPoint x="607" y="329" as="targetPoint" />
          </mxGeometry>
        </mxCell>
        <mxCell id="jYgNeBz4wBcF9DyLLT3X-21" value="&lt;div&gt;Batch Processing System&lt;/div&gt;&lt;div&gt;(Jetfire)&lt;/div&gt;" style="sketch=0;points=[[0,0,0],[0.25,0,0],[0.5,0,0],[0.75,0,0],[1,0,0],[0,1,0],[0.25,1,0],[0.5,1,0],[0.75,1,0],[1,1,0],[0,0.25,0],[0,0.5,0],[0,0.75,0],[1,0.25,0],[1,0.5,0],[1,0.75,0]];outlineConnect=0;fontColor=#232F3E;fillColor=#ED7100;strokeColor=#ffffff;dashed=0;verticalLabelPosition=bottom;verticalAlign=top;align=center;html=1;fontSize=12;fontStyle=0;aspect=fixed;shape=mxgraph.aws4.resourceIcon;resIcon=mxgraph.aws4.ec2;" parent="1" vertex="1">
          <mxGeometry x="450" y="290" width="78" height="78" as="geometry" />
        </mxCell>
        <mxCell id="jYgNeBz4wBcF9DyLLT3X-25" value="" style="edgeStyle=orthogonalEdgeStyle;rounded=0;orthogonalLoop=1;jettySize=auto;html=1;curved=1;exitX=0.091;exitY=0.061;exitDx=0;exitDy=0;exitPerimeter=0;" parent="1" source="rdtsFOhuQ50RO5R9y7oS-2" edge="1">
          <mxGeometry relative="1" as="geometry">
            <mxPoint x="528" y="190" as="targetPoint" />
            <Array as="points">
              <mxPoint x="683" y="290" />
              <mxPoint x="610" y="290" />
              <mxPoint x="610" y="190" />
            </Array>
            <mxPoint x="640" y="290" as="sourcePoint" />
          </mxGeometry>
        </mxCell>
        <mxCell id="jYgNeBz4wBcF9DyLLT3X-31" value="" style="edgeStyle=orthogonalEdgeStyle;rounded=0;orthogonalLoop=1;jettySize=auto;html=1;curved=1;entryX=0.362;entryY=-0.021;entryDx=0;entryDy=0;entryPerimeter=0;" parent="1" source="jYgNeBz4wBcF9DyLLT3X-28" target="rdtsFOhuQ50RO5R9y7oS-2" edge="1">
          <mxGeometry relative="1" as="geometry">
            <mxPoint x="780" y="329" as="targetPoint" />
          </mxGeometry>
        </mxCell>
        <mxCell id="jYgNeBz4wBcF9DyLLT3X-28" value="Card Management System&lt;div&gt;(Ironbank)&lt;/div&gt;" style="sketch=0;points=[[0,0,0],[0.25,0,0],[0.5,0,0],[0.75,0,0],[1,0,0],[0,1,0],[0.25,1,0],[0.5,1,0],[0.75,1,0],[1,1,0],[0,0.25,0],[0,0.5,0],[0,0.75,0],[1,0.25,0],[1,0.5,0],[1,0.75,0]];outlineConnect=0;fontColor=#232F3E;fillColor=#ED7100;strokeColor=#ffffff;dashed=0;verticalLabelPosition=bottom;verticalAlign=top;align=center;html=1;fontSize=12;fontStyle=0;aspect=fixed;shape=mxgraph.aws4.resourceIcon;resIcon=mxgraph.aws4.ec2;" parent="1" vertex="1">
          <mxGeometry x="640" y="120" width="78" height="78" as="geometry" />
        </mxCell>
        <mxCell id="jYgNeBz4wBcF9DyLLT3X-38" value="" style="edgeStyle=orthogonalEdgeStyle;rounded=0;orthogonalLoop=1;jettySize=auto;html=1;curved=1;entryX=0;entryY=0.5;entryDx=0;entryDy=0;entryPerimeter=0;exitX=0.586;exitY=-0.012;exitDx=0;exitDy=0;exitPerimeter=0;" parent="1" source="rdtsFOhuQ50RO5R9y7oS-2" target="jYgNeBz4wBcF9DyLLT3X-34" edge="1">
          <mxGeometry relative="1" as="geometry">
            <mxPoint x="937" y="329" as="targetPoint" />
            <mxPoint x="858" y="329.0666666666666" as="sourcePoint" />
          </mxGeometry>
        </mxCell>
        <mxCell id="jYgNeBz4wBcF9DyLLT3X-34" value="Smart Engage System" style="sketch=0;points=[[0,0,0],[0.25,0,0],[0.5,0,0],[0.75,0,0],[1,0,0],[0,1,0],[0.25,1,0],[0.5,1,0],[0.75,1,0],[1,1,0],[0,0.25,0],[0,0.5,0],[0,0.75,0],[1,0.25,0],[1,0.5,0],[1,0.75,0]];outlineConnect=0;fontColor=#232F3E;fillColor=#ED7100;strokeColor=#ffffff;dashed=0;verticalLabelPosition=bottom;verticalAlign=top;align=center;html=1;fontSize=12;fontStyle=0;aspect=fixed;shape=mxgraph.aws4.resourceIcon;resIcon=mxgraph.aws4.ec2;" parent="1" vertex="1">
          <mxGeometry x="910" y="122.5" width="78" height="78" as="geometry" />
        </mxCell>
        <mxCell id="jYgNeBz4wBcF9DyLLT3X-39" value="1" style="ellipse;whiteSpace=wrap;html=1;aspect=fixed;rotation=0;gradientColor=#223548;strokeColor=none;gradientDirection=east;fillColor=#5b738b;rounded=0;pointerEvents=0;fontFamily=Helvetica;fontSize=16;fontColor=#FFFFFF;spacingTop=4;spacingBottom=4;spacingLeft=4;spacingRight=4;points=[];fontStyle=1" parent="1" vertex="1">
          <mxGeometry x="380" y="123" width="30" height="30" as="geometry" />
        </mxCell>
        <mxCell id="jYgNeBz4wBcF9DyLLT3X-40" value="2" style="ellipse;whiteSpace=wrap;html=1;aspect=fixed;rotation=0;gradientColor=#223548;strokeColor=none;gradientDirection=east;fillColor=#5b738b;rounded=0;pointerEvents=0;fontFamily=Helvetica;fontSize=16;fontColor=#FFFFFF;spacingTop=4;spacingBottom=4;spacingLeft=4;spacingRight=4;points=[];fontStyle=1" parent="1" vertex="1">
          <mxGeometry x="450" y="240" width="30" height="30" as="geometry" />
        </mxCell>
        <mxCell id="jYgNeBz4wBcF9DyLLT3X-41" value="3" style="ellipse;whiteSpace=wrap;html=1;aspect=fixed;rotation=0;gradientColor=#223548;strokeColor=none;gradientDirection=east;fillColor=#5b738b;rounded=0;pointerEvents=0;fontFamily=Helvetica;fontSize=16;fontColor=#FFFFFF;spacingTop=4;spacingBottom=4;spacingLeft=4;spacingRight=4;points=[];fontStyle=1" parent="1" vertex="1">
          <mxGeometry x="570" y="290" width="30" height="30" as="geometry" />
        </mxCell>
        <mxCell id="jYgNeBz4wBcF9DyLLT3X-42" value="4" style="ellipse;whiteSpace=wrap;html=1;aspect=fixed;rotation=0;gradientColor=#223548;strokeColor=none;gradientDirection=east;fillColor=#5b738b;rounded=0;pointerEvents=0;fontFamily=Helvetica;fontSize=16;fontColor=#FFFFFF;spacingTop=4;spacingBottom=4;spacingLeft=4;spacingRight=4;points=[];fontStyle=1" parent="1" vertex="1">
          <mxGeometry x="570" y="220" width="30" height="30" as="geometry" />
        </mxCell>
        <mxCell id="jYgNeBz4wBcF9DyLLT3X-44" value="5" style="ellipse;whiteSpace=wrap;html=1;aspect=fixed;rotation=0;gradientColor=#223548;strokeColor=none;gradientDirection=east;fillColor=#5b738b;rounded=0;pointerEvents=0;fontFamily=Helvetica;fontSize=16;fontColor=#FFFFFF;spacingTop=4;spacingBottom=4;spacingLeft=4;spacingRight=4;points=[];fontStyle=1" parent="1" vertex="1">
          <mxGeometry x="570" y="123" width="30" height="30" as="geometry" />
        </mxCell>
        <mxCell id="jYgNeBz4wBcF9DyLLT3X-45" value="6" style="ellipse;whiteSpace=wrap;html=1;aspect=fixed;rotation=0;gradientColor=#223548;strokeColor=none;gradientDirection=east;fillColor=#5b738b;rounded=0;pointerEvents=0;fontFamily=Helvetica;fontSize=16;fontColor=#FFFFFF;spacingTop=4;spacingBottom=4;spacingLeft=4;spacingRight=4;points=[];fontStyle=1" parent="1" vertex="1">
          <mxGeometry x="710" y="250" width="30" height="30" as="geometry" />
        </mxCell>
        <mxCell id="jYgNeBz4wBcF9DyLLT3X-46" value="7" style="ellipse;whiteSpace=wrap;html=1;aspect=fixed;rotation=0;gradientColor=#223548;strokeColor=none;gradientDirection=east;fillColor=#5b738b;rounded=0;pointerEvents=0;fontFamily=Helvetica;fontSize=16;fontColor=#FFFFFF;spacingTop=4;spacingBottom=4;spacingLeft=4;spacingRight=4;points=[];fontStyle=1" parent="1" vertex="1">
          <mxGeometry x="870" y="240" width="30" height="30" as="geometry" />
        </mxCell>
        <mxCell id="jYgNeBz4wBcF9DyLLT3X-48" value="&lt;ol style=&quot;line-height: 150%;&quot;&gt;&lt;li&gt;&lt;span style=&quot;background-color: initial;&quot;&gt;Ingestion Service pulls data files from SFTP as per the frequency. The file is decrypted and checked for integrity.&amp;nbsp;&lt;/span&gt;&lt;br&gt;&lt;/li&gt;&lt;li&gt;The ingested file is placed into our Batch Processing System called Jetfire.&amp;nbsp;&lt;/li&gt;&lt;li&gt;Jetfire pushes each record into Kafka.&amp;nbsp;&lt;/li&gt;&lt;li&gt;Kafka publishes this back to the Ingestion Service.&amp;nbsp;&lt;/li&gt;&lt;li&gt;The consumer in the ingestion service handles one record at a time. This record is sent to the Card Management System alias Ironbank for updating or inserting into the right data tables.&amp;nbsp;&lt;/li&gt;&lt;li&gt;Inserts or updates in the CMS database publish an event to Kafka.&lt;/li&gt;&lt;li&gt;Kafka publishes this message to the Smart Engage system which is registered as a consumer for this topic.&amp;nbsp;&amp;nbsp;&lt;/li&gt;&lt;/ol&gt;" style="text;html=1;whiteSpace=wrap;verticalAlign=top;overflow=hidden;fillColor=default;strokeColor=#808080;strokeWidth=2;" parent="1" vertex="1">
          <mxGeometry x="289" y="470" width="400" height="266" as="geometry" />
        </mxCell>
        <mxCell id="rdtsFOhuQ50RO5R9y7oS-1" value="" style="edgeStyle=orthogonalEdgeStyle;rounded=0;orthogonalLoop=1;jettySize=auto;html=1;" edge="1" parent="1" source="jYgNeBz4wBcF9DyLLT3X-2" target="jYgNeBz4wBcF9DyLLT3X-14">
          <mxGeometry relative="1" as="geometry">
            <mxPoint x="339.25" y="161.5" as="targetPoint" />
            <mxPoint x="167" y="163" as="sourcePoint" />
          </mxGeometry>
        </mxCell>
        <mxCell id="jYgNeBz4wBcF9DyLLT3X-14" value="Data files&amp;nbsp;&lt;div&gt;placed in SFTP server&lt;/div&gt;" style="sketch=0;outlineConnect=0;fontColor=#232F3E;gradientColor=none;fillColor=#01A88D;strokeColor=none;dashed=0;verticalLabelPosition=bottom;verticalAlign=top;align=center;html=1;fontSize=12;fontStyle=0;aspect=fixed;shape=mxgraph.aws4.transfer_for_sftp_resource;" parent="1" vertex="1">
          <mxGeometry x="207" y="116" width="76" height="78" as="geometry" />
        </mxCell>
        <mxCell id="rdtsFOhuQ50RO5R9y7oS-2" value="&lt;font size=&quot;1&quot; color=&quot;#000000&quot;&gt;&lt;b style=&quot;font-size: 16px;&quot;&gt;Managed Service Kafka (MSK) of AWS&lt;/b&gt;&lt;/font&gt;" style="rounded=1;whiteSpace=wrap;html=1;fillColor=#6a00ff;fontColor=#ffffff;strokeColor=#3700CC;fillStyle=dashed;" vertex="1" parent="1">
          <mxGeometry x="650" y="299" width="360" height="60" as="geometry" />
        </mxCell>
        <mxCell id="rdtsFOhuQ50RO5R9y7oS-3" value="" style="sketch=0;points=[[0,0,0],[0.25,0,0],[0.5,0,0],[0.75,0,0],[1,0,0],[0,1,0],[0.25,1,0],[0.5,1,0],[0.75,1,0],[1,1,0],[0,0.25,0],[0,0.5,0],[0,0.75,0],[1,0.25,0],[1,0.5,0],[1,0.75,0]];outlineConnect=0;fontColor=#232F3E;fillColor=#8C4FFF;strokeColor=#ffffff;dashed=0;verticalLabelPosition=bottom;verticalAlign=top;align=center;html=1;fontSize=12;fontStyle=0;aspect=fixed;shape=mxgraph.aws4.resourceIcon;resIcon=mxgraph.aws4.managed_streaming_for_kafka;" vertex="1" parent="1">
          <mxGeometry x="800" y="336" width="78" height="78" as="geometry" />
        </mxCell>
        <mxCell id="rdtsFOhuQ50RO5R9y7oS-8" value="&lt;i&gt;Publishes to single topic for the given job&lt;/i&gt;" style="text;html=1;align=center;verticalAlign=middle;whiteSpace=wrap;rounded=0;fontColor=#808080;" vertex="1" parent="1">
          <mxGeometry x="547.5" y="350" width="75" height="30" as="geometry" />
        </mxCell>
        <mxCell id="rdtsFOhuQ50RO5R9y7oS-9" value="&lt;i&gt;Events with different grammar published into different topics&lt;/i&gt;" style="text;html=1;align=center;verticalAlign=middle;whiteSpace=wrap;rounded=0;fontColor=#808080;" vertex="1" parent="1">
          <mxGeometry x="740" y="230" width="110" height="30" as="geometry" />
        </mxCell>
      </root>
    </mxGraphModel>
  </diagram>
</mxfile>
